Coordinates
version=1
nRows=11
nColumns=40
inDegrees=yes

Units are S.I. units (second, meters, Newtons, ...)
If the header above contains a line with 'inDegrees', this indicates whether rotational values are in degrees (yes) or radians (no).

endheader
time	pelvis_tilt	pelvis_list	pelvis_rotation	pelvis_tx	pelvis_ty	pelvis_tz	hip_flexion_r	hip_adduction_r	hip_rotation_r	knee_angle_r	knee_angle_r_beta	ankle_angle_r	subtalar_angle_r	mtp_angle_r	hip_flexion_l	hip_adduction_l	hip_rotation_l	knee_angle_l	knee_angle_l_beta	ankle_angle_l	subtalar_angle_l	mtp_angle_l	lumbar_extension	lumbar_bending	lumbar_rotation	arm_flex_r	arm_add_r	arm_rot_r	elbow_flex_r	pro_sup_r	wrist_flex_r	wrist_dev_r	arm_flex_l	arm_add_l	arm_rot_l	elbow_flex_l	pro_sup_l	wrist_flex_l	wrist_dev_l
      5.05000000	    -19.08839584	      5.82444002	     16.10817527	     -2.15274602	      0.94643036	      0.28333342	     30.78561265	    -12.05975415	    -11.85156472	    112.43166819	      1.96230279	     -5.66526813	    -12.53222334	      0.00000000	     39.67036659	      8.18574430	     -4.53837241	     43.56527314	      0.76035746	     12.82210523	     12.94981368	      0.00000000	    -26.69587332	     -7.81342583	     -9.91887443	    -13.37106240	    -12.64302375	    -21.63426656	     71.96710165	     39.69932988	      0.00000000	      0.00000000	     18.56674322	    -22.63312074	      6.86270619	     99.58633129	     45.79336579	      0.00000000	      0.00000000
      5.05500000	    -19.16984022	      5.16197150	     17.72847509	     -2.12392300	      0.94286197	      0.28088822	     33.75248440	    -12.70705791	    -12.36542246	    114.70186757	      2.00192525	     -4.25029852	    -13.22160727	      0.00000000	     37.92210983	      8.50252533	     -2.42863486	     43.90844108	      0.76634687	     15.34000746	     13.26472793	      0.00000000	    -26.16453002	     -6.48686600	    -11.80383872	    -15.78676100	    -12.50826950	    -21.00966501	     70.46364925	     39.64279042	      0.00000000	      0.00000000	     21.98701302	    -21.60611186	      6.93121623	    101.30395354	     45.89286012	      0.00000000	      0.00000000
      5.06000000	    -19.23502250	      4.40870189	     19.35120590	     -2.09537320	      0.93917465	      0.27844351	     36.81460414	    -13.41158908	    -12.78783745	    116.65818942	      2.03606950	     -3.05656365	    -13.73614590	      0.00000000	     36.21308733	      8.61577734	     -0.32391241	     44.23203881	      0.77199471	     17.67203888	     13.79430160	      0.00000000	    -25.46720500	     -5.20709978	    -12.76367503	    -19.75253516	    -13.31551770	    -19.32569984	     70.23331939	     39.97682311	      0.00000000	      0.00000000	     27.02688350	    -20.11439844	      8.65366983	    101.18836894	     45.81634493	      0.00000000	      0.00000000
      5.06500000	    -19.31508033	      3.53505530	     20.97817385	     -2.06709167	      0.93536734	      0.27604462	     40.00184055	    -14.15622418	    -13.13732436	    118.28295363	      2.06442699	     -1.74817490	    -13.99229723	      0.00000000	     34.61943821	      8.49552772	      1.75899148	     44.58894817	      0.77822396	     19.82666869	     13.99478218	      0.00000000	    -24.73809244	     -3.74851151	    -14.27529131	    -23.02184422	    -13.81063683	    -18.02609630	     69.96849836	     40.14224515	      0.00000000	      0.00000000	     31.25001289	    -18.88063861	      9.20081290	    101.96325208	     45.82715447	      0.00000000	      0.00000000
      5.07000000	    -19.39463074	      2.57293540	     22.57248949	     -2.03898331	      0.93155618	      0.27377017	     43.28295320	    -14.94408996	    -13.37947595	    119.54224695	      2.08640580	     -0.51645402	    -13.96689302	      0.00000000	     33.11435603	      8.13489292	      3.77131655	     44.92821954	      0.78414536	     21.76989362	     14.15746536	      0.00000000	    -23.96873052	     -2.21449702	    -15.72978370	    -26.36826038	    -14.24425341	    -16.96368552	     70.10015862	     40.31234387	      0.00000000	      0.00000000	     35.54611192	    -17.68840792	      9.64931981	    102.76577101	     45.84169648	      0.00000000	      0.00000000
      5.07500000	    -19.46670340	      1.51518581	     24.12547708	     -2.01095561	      0.92780917	      0.27165424	     46.62143034	    -15.75467418	    -13.53903443	    120.41061508	      2.10156169	      0.75130392	    -13.83221273	      0.00000000	     31.70852898	      7.51664644	      5.70171229	     45.24462588	      0.78966769	     23.32402742	     14.22380051	      0.00000000	    -23.12785931	     -0.59796596	    -17.06528163	    -29.88474358	    -14.62657654	    -16.11031732	     70.65036776	     40.53145707	      0.00000000	      0.00000000	     39.94989412	    -16.51400573	     10.09489218	    103.33872560	     45.82706345	      0.00000000	      0.00000000
      5.08000000	    -19.52120203	      0.41517125	     25.57592153	     -1.98282577	      0.92425198	      0.26976431	     49.97396507	    -16.57498443	    -13.56645029	    120.86405776	      2.10947576	      1.91801011	    -13.55401962	      0.00000000	     30.34711318	      6.65566891	      7.50285632	     45.44700074	      0.79319980	     24.55376218	     14.32671785	      0.00000000	    -22.26669837	      1.03434346	    -18.29019295	    -33.36284103	    -14.81832951	    -15.61538868	     71.33619025	     40.79295472	      0.00000000	      0.00000000	     44.35429888	    -15.35233999	     10.35494216	    103.89278273	     45.78001610	      0.00000000	      0.00000000
      5.08500000	    -19.54702701	     -0.69883270	     26.88334217	     -1.95440277	      0.92100618	      0.26812100	     53.28204692	    -17.36955029	    -13.46192100	    120.88517900	      2.10984439	      2.85846425	    -13.38040293	      0.00000000	     28.98384968	      5.55972280	      9.14958383	     45.46189142	      0.79345969	     25.18521443	     14.34342799	      0.00000000	    -21.41114399	      2.67009461	    -19.95488776	    -35.68311179	    -14.81886048	    -15.44756060	     70.82065100	     40.80254715	      0.00000000	      0.00000000	     48.30029059	    -14.94955640	      9.89211492	    105.16357412	     45.82835995	      0.00000000	      0.00000000
      5.09000000	    -19.55460218	     -1.82164842	     28.00114484	     -1.92559160	      0.91803306	      0.26671157	     56.52632855	    -18.07892888	    -13.19432852	    120.48517355	      2.10286298	      4.13633764	    -12.40319150	      0.00000000	     27.62982856	      4.23412515	     10.61962595	     45.32033384	      0.79098904	     25.87960777	     14.88247398	      0.00000000	    -20.49368007	      4.23149231	    -20.51258838	    -40.08307785	    -15.20093517	    -14.77762137	     72.84551106	     41.12848497	      0.00000000	      0.00000000	     52.77411767	    -13.49185003	     10.25661924	    105.28149093	     45.76132580	      0.00000000	      0.00000000
      5.09500000	    -19.52357610	     -2.89431814	     28.88961390	     -1.89620201	      0.91552027	      0.26550200	     59.62236527	    -18.68850154	    -12.80434926	    119.64837699	      2.08825812	      5.05848819	    -11.93574015	      0.00000000	     26.19094688	      2.73284233	     11.90661872	     44.92723264	      0.78412813	     25.76731897	     15.08306064	      0.00000000	    -19.61457221	      5.72893462	    -21.29394764	    -43.42593451	    -15.12669152	    -14.80483652	     73.73905217	     41.32964973	      0.00000000	      0.00000000	     56.83690565	    -12.55990715	      9.93318815	    105.85749968	     45.70427056	      0.00000000	      0.00000000
      5.10000000	    -19.47078728	     -3.90317312	     29.51214632	     -1.86614943	      0.91344378	      0.26444897	     62.55177144	    -19.15261725	    -12.29215175	    118.39504744	      2.06638340	      5.83955563	    -11.45705891	      0.00000000	     24.65452425	      1.08670666	     12.98535595	     44.29613301	      0.77311337	     25.20583675	     15.24663753	      0.00000000	    -18.75187001	      7.13684794	    -21.86552785	    -46.63380122	    -14.90359723	    -15.08532708	     74.53649480	     41.52483921	      0.00000000	      0.00000000	     60.64344247	    -11.77801443	      9.42473686	    106.56331505	     45.63587820	      0.00000000	      0.00000000
